<svg width="87" height="45" viewBox="0 0 87 45" fill="none" xmlns="http://www.w3.org/2000/svg">
<rect x="0.0926399" width="1" height="8" transform="rotate(0.663504 0.0926399 0)" fill="black"/>
<rect x="4.62206" y="0.22023" width="1" height="4" transform="rotate(6.18452 4.62206 0.22023)" fill="black"/>
<rect x="8.95885" y="0.843521" width="1" height="4" transform="rotate(11.6741 8.95885 0.843521)" fill="black"/>
<rect x="13.4324" y="1.93413" width="1" height="4" transform="rotate(17.3315 13.4324 1.93413)" fill="black"/>
<rect x="17.9921" y="3.55055" width="1" height="4" transform="rotate(23.1406 17.9921 3.55055)" fill="black"/>
<rect x="22.0081" y="5.43831" width="1" height="6" transform="rotate(28.671 22.0081 5.43831)" fill="black"/>
<rect x="26.0541" y="7.8493" width="1" height="4" transform="rotate(34.3571 26.0541 7.8493)" fill="black"/>
<rect x="29.8126" y="10.6305" width="1" height="4" transform="rotate(40.0012 29.8126 10.6305)" fill="black"/>
<rect x="33.266" y="13.758" width="1" height="4" transform="rotate(45.6245 33.266 13.758)" fill="black"/>
<rect x="36.3938" y="17.209" width="1" height="4" transform="rotate(51.2505 36.3938 17.209)" fill="black"/>
<rect x="39.027" y="20.7412" width="1" height="8" transform="rotate(56.6922 39.027 20.7412)" fill="black"/>
<rect x="30.124" y="27.0026" width="1" height="24" transform="rotate(56.69 30.124 27.0026)" fill="black"/>
<path d="M21.011 28.5229V26.4531H13.0217V19.8877H22.3425V17.8047H10.5564V37H13.0217V28.5229H21.011Z" fill="black"/>
<path d="M39.998 37H42.2128V22.7354H39.7607V32.9658C39.6288 33.2734 39.4618 33.5591 39.2597 33.8228C39.0663 34.0776 38.8378 34.2974 38.5741 34.4819C38.2577 34.7104 37.8842 34.8906 37.4535 35.0225C37.0229 35.1455 36.5351 35.207 35.9902 35.207C35.5243 35.207 35.1112 35.1455 34.7509 35.0225C34.3993 34.8994 34.1005 34.6841 33.8544 34.3765C33.6083 34.0776 33.4237 33.6733 33.3007 33.1636C33.1777 32.6538 33.1161 32.0122 33.1161 31.2388V22.7354H30.6772V31.2124C30.6772 32.2759 30.7914 33.1899 31.0199 33.9546C31.2572 34.7104 31.5912 35.3345 32.0219 35.8267C32.4526 36.3188 32.9711 36.6836 33.5776 36.9209C34.184 37.1494 34.8608 37.2637 35.6078 37.2637C36.5395 37.2637 37.3612 37.0703 38.0732 36.6836C38.7851 36.2881 39.3783 35.7388 39.8529 35.0356L39.998 37ZM57.1656 37.2637C58.5543 37.2637 59.7189 36.9868 60.6593 36.4331C61.6085 35.8706 62.3204 35.229 62.795 34.5083L61.3053 33.3481C60.857 33.9282 60.2945 34.394 59.6178 34.7456C58.941 35.0972 58.1676 35.2729 57.2975 35.2729C56.6383 35.2729 56.0362 35.1499 55.4913 34.9038C54.9464 34.6577 54.4806 34.3193 54.0939 33.8887C53.7159 33.4844 53.4171 33.0186 53.1974 32.4912C52.9864 31.9639 52.8502 31.353 52.7887 30.6587V30.5664H62.9796V29.4722C62.9796 28.479 62.8522 27.5562 62.5973 26.7036C62.3512 25.8511 61.9733 25.1084 61.4635 24.4756C60.9537 23.8516 60.3121 23.3638 59.5387 23.0122C58.774 22.6519 57.8776 22.4717 56.8492 22.4717C56.0319 22.4717 55.232 22.6387 54.4498 22.9727C53.6764 23.3066 52.9864 23.7856 52.38 24.4097C51.7648 25.0425 51.2726 25.8159 50.9034 26.73C50.5343 27.6353 50.3497 28.6636 50.3497 29.8149V30.3687C50.3497 31.3618 50.5167 32.2803 50.8507 33.124C51.1847 33.9678 51.6505 34.6973 52.2482 35.3125C52.8458 35.9277 53.5621 36.4067 54.3971 36.7495C55.2408 37.0923 56.1637 37.2637 57.1656 37.2637ZM56.8492 24.4756C57.4733 24.4756 58.0094 24.5898 58.4576 24.8184C58.9147 25.0469 59.2926 25.3457 59.5914 25.7148C59.8903 26.084 60.1232 26.5234 60.2902 27.0332C60.4571 27.5342 60.5406 28.0044 60.5406 28.4438V28.5625H52.8678C52.9645 27.9033 53.1315 27.3232 53.3688 26.8223C53.6149 26.3125 53.9137 25.8818 54.2653 25.5303C54.6168 25.1875 55.0123 24.9282 55.4518 24.7524C55.8912 24.5679 56.357 24.4756 56.8492 24.4756ZM71.512 16.75V18.8726H76.3636V34.8906H71.512V37H83.4564V34.8906H78.8026V16.75H71.512Z" fill="white"/>
</svg>
