<svg aria-hidden="true" xmlns="http://www.w3.org/2000/svg" width="134" height="40"><defs><radialGradient id="b" cy="0%" r="100.1%" fx="50%" fy="0%" gradientTransform="matrix(0 .9989 -1.152 0 .5 -.5)"><stop offset="0%" stop-color="#20C6B7"/><stop offset="100%" stop-color="#4D9ABF"/></radialGradient><linearGradient id="a" x1="39.8%" x2="63%" y1="-34.5%" y2="143.9%"><stop offset="0%" stop-color="#00C7B7"/><stop offset="100%" stop-color="#4D9ABF"/></linearGradient></defs><g fill="none" fill-rule="evenodd"><path fill="#0E1E25" d="m59.1 12.5.1 1.7c1.1-1.3 2.6-2 4.3-2 3.1 0 4.7 1.8 4.7 5.3v9.8H65v-9.6c0-1-.2-1.6-.6-2-.4-.5-1-.8-2-.8-1.3 0-2.3.6-3 1.9v10.5H56V12.5h3.1zm19 15c-2 0-3.8-.6-5-2-1.4-1.3-2-3-2-5.2v-.4c0-1.5.2-2.8.8-4a6.3 6.3 0 0 1 5.8-3.7c2 0 3.6.7 4.7 2a8.2 8.2 0 0 1 1.7 5.4v1.3h-9.7c.1 1.3.5 2.2 1.2 3 .7.7 1.6 1 2.7 1 1.5 0 2.8-.6 3.7-1.8l1.8 1.7a6 6 0 0 1-2.3 2c-1 .5-2.1.8-3.4.8zM77.7 15c-.9 0-1.6.3-2.2 1a5 5 0 0 0-1 2.6h6.3v-.2a4 4 0 0 0-.9-2.6c-.5-.5-1.2-.8-2.2-.8zm13.1-6v3.6h2.6V15h-2.6v8.2c0 .6.1 1 .3 1.2.3.3.7.4 1.2.4l1.2-.1v2.5a8.2 8.2 0 0 1-2.2.4c-2.5 0-3.8-1.4-3.8-4.3V15H85v-2.5h2.4V8.9h3.3zm8.7 18.4h-3.3v-21h3.3v21zm7.1 0h-3.3V12.5h3.3v14.8zm-3.5-18.6c0-.6.2-1 .5-1.3.3-.4.8-.5 1.4-.5.6 0 1 .1 1.4.5.3.3.5.7.5 1.3 0 .5-.2.9-.5 1.2-.3.3-.8.5-1.4.5-.6 0-1-.2-1.4-.5-.3-.3-.5-.7-.5-1.2zm8.3 18.6V15h-2.2v-2.5h2.2v-1.4c0-1.6.5-2.9 1.4-3.8.9-.9 2.2-1.3 3.8-1.3.6 0 1.2 0 1.9.2l-.1 2.6a6.5 6.5 0 0 0-1.3 0c-1.6 0-2.4.7-2.4 2.4v1.3h3V15h-3v12.3h-3.3zm14-4.8 3-10h3.5l-5.9 17c-.9 2.5-2.4 3.8-4.6 3.8a6 6 0 0 1-1.6-.3v-2.6h.7c.8 0 1.4 0 1.9-.4a3 3 0 0 0 1-1.5l.4-1.3-5.2-14.7h3.6l3.2 10z"/><path fill="url(#a)" fill-rule="nonzero" d="M82 14c0-2.3.5-4.1 1.5-5.5 1-1.4 2.3-2.1 4.1-2.1a4.5 4.5 0 0 1 3.7 1.8v-8h3.2V21h-2.7l-.3-1.8c-.5.7-1 1.2-1.7 1.6-.6.3-1.4.5-2.2.5-1.8 0-3.1-.7-4.1-2-1-1.2-1.5-3-1.5-5V14zm3.2.3c0 1.3.3 2.4.8 3.2.5.8 1.3 1.1 2.4 1.1.7 0 1.3-.1 1.7-.4.5-.3 1-.7 1.2-1.2v-6.3a3.4 3.4 0 0 0-1.2-1.3c-.4-.3-1-.4-1.7-.4-1 0-1.9.5-2.4 1.4-.5 1-.8 2.1-.8 3.6v.3zm12.4-.6c0-2.2.6-4 1.7-5.3a6 6 0 0 1 4.8-2c2.1 0 3.7.6 4.9 2a7.8 7.8 0 0 1 1.8 5.3v.3c0 2.1-.6 3.9-1.8 5.2a6 6 0 0 1-4.8 2 6 6 0 0 1-4.9-2 7.8 7.8 0 0 1-1.7-5.2v-.3zm3.2.3c0 1.4.3 2.5.8 3.4.6.9 1.4 1.3 2.6 1.3 1.1 0 2-.4 2.5-1.3.6-.9.8-2 .8-3.4v-.3c0-1.4-.2-2.5-.8-3.4a2.8 2.8 0 0 0-2.6-1.4c-1 0-2 .5-2.5 1.4-.5.9-.8 2-.8 3.4v.3zm18.9 4.7a3 3 0 0 0 2-.7c.5-.5.8-1 .8-1.7h3c0 1.4-.6 2.5-1.7 3.5a6.1 6.1 0 0 1-4.1 1.5c-2.1 0-3.8-.7-4.9-2a7.9 7.9 0 0 1-1.7-5.3v-.4c0-2.1.6-3.8 1.7-5.2 1.1-1.4 2.8-2 4.9-2a6 6 0 0 1 4.2 1.5c1 1 1.6 2.2 1.5 3.8h-3c0-.7-.2-1.4-.7-2-.5-.5-1.2-.8-2-.8-1.2 0-2 .5-2.6 1.4-.5.8-.8 2-.8 3.3v.4c0 1.4.3 2.5.8 3.4.5.9 1.4 1.3 2.6 1.3zm16.6-1.6c0-.5-.2-1-.7-1.2-.4-.4-1.2-.7-2.4-1-1.7-.3-3-.8-3.9-1.5a3.2 3.2 0 0 1-1.3-2.7c0-1.2.5-2.2 1.6-3a6 6 0 0 1 4-1.3c1.7 0 3.1.4 4.2 1.2 1 1 1.5 2 1.4 3.3h-3a2 2 0 0 0-.8-1.5c-.4-.4-1-.6-1.8-.6s-1.4.1-1.8.5c-.4.3-.6.8-.6 1.3s.2.9.6 1.2c.3.3 1.1.5 2.3.8 1.8.3 3.2.9 4 1.5 1 .7 1.3 1.7 1.3 2.8 0 1.3-.5 2.4-1.6 3.2-1 .8-2.4 1.2-4.2 1.2-1.9 0-3.3-.5-4.4-1.5a4 4 0 0 1-1.5-3.3h3c0 .8.3 1.4.9 1.8.6.4 1.2.6 2 .6.9 0 1.5-.2 2-.5.4-.3.7-.8.7-1.3z" transform="translate(56 6)"/><path d="m28.6 14.1.7-4.8 3.6 3.6-3.7 1.6H29a1.7 1.7 0 0 0-.5-.4zm5.2-.3 4 4c.7.7 1.1 1.1 1.3 1.6v.2l-9.2-4h-.1l4-1.8zm5.2 7c-.2.4-.6.8-1.3 1.5l-4.3 4.3-5.7-1.1-.1-.1a1.7 1.7 0 0 0-.7-1.2V24l1-6.5.1-.2a1.7 1.7 0 0 0 1.2-.6h.1l9.7 4zm-6.7 6.9-7.1 7.1 1.2-7.5v-.1a1.9 1.9 0 0 0 .8-.5l5.1 1zm-8.7 8.7-.8.8-9-13V24l.1-.1.1-.1h.1l10 2v.1a1.8 1.8 0 0 0 1 1.2.2.2 0 0 0 0 .1l-1.5 9zM22 38c-.6.6-1 1-1.4 1a2 2 0 0 1-1.2 0c-.5 0-.9-.5-1.7-1.3l-9-9 2.4-3.6h.1a2.4 2.4 0 0 0 1.6-.1h.1l9 13zM7.9 28l-2.1-2.1 4-1.7h.1a3 3 0 0 0 .2.2L8 28zm-3-3-2.6-2.6-1-1 8 1.6v.1L4.8 25zm-4-5a2 2 0 0 1 0-.5c.2-.5.6-.9 1.4-1.7l3.3-3.3a2175.5 2175.5 0 0 0 4.6 6.7s.1 0 0 0l-.3.6h-.1L.8 20zm5.6-6.4L11 9l3.3 1.4 2.3 1c.1 0 0 0 0 .1a2 2 0 0 0 .6 1.8v.1l-4.6 7.1h-.1a2.3 2.3 0 0 0-.6 0 3 3 0 0 0-.5 0l-4.9-7zM12 8l5.8-5.8C18.5 1.5 19 1 19.4.9a2 2 0 0 1 1.2 0c.5.2.9.6 1.7 1.4l1.2 1.2-4.1 6.4c0 .1-.1.1-.1 0a2.1 2.1 0 0 0-2 .5L11.8 8zm12.5-3.7 3.8 3.8-.9 5.7v.1a1.8 1.8 0 0 0-.6.3.1.1 0 0 1-.1 0L20.8 12l-.1-.1a2.2 2.2 0 0 0-.3-1l4-6.4zm-4 8.6 5.5 2.3h.1a.1.1 0 0 1 0 .1v.5H26L13.9 21h-.1l4.5-7h.5a2 2 0 0 0 1.7-1zm-6.2 9.2L26.5 17l.2.1.1.1-1 6.5-.1.1a1.7 1.7 0 0 0-1.4.9h-.1l-9.8-2-.2-.5z" fill="url(#b)" fill-rule="nonzero"/></g></svg>